<?xml version="1.0" encoding="utf-8"?>
<!-- Generator: Adobe Illustrator 17.1.0, SVG Export Plug-In . SVG Version: 6.00 Build 0)  -->
<!DOCTYPE svg PUBLIC "-//W3C//DTD SVG 1.1//EN" "http://www.w3.org/Graphics/SVG/1.1/DTD/svg11.dtd">
<svg version="1.1" id="Layer_1" xmlns="http://www.w3.org/2000/svg" xmlns:xlink="http://www.w3.org/1999/xlink" x="0px" y="0px"
	 viewBox="0 0 300 300" enable-background="new 0 0 300 300" xml:space="preserve">
<g id="_x31_8f_logo_4_">
	<rect x="-10" y="-10" fill="#1188FF" width="320" height="320"/>
	<g>
		<g>
			<polygon fill="#FFFFFF" points="131.1,276.2 131.1,173.1 114.2,173.1 114.2,167.4 137.4,167.4 137.4,276.2 			"/>
			<path fill="#FFFFFF" d="M136.6,168.2v107.2h-4.7V172.4H115v-4.2H136.6 M138.2,166.6h-1.6H115h-1.6v1.6v4.2v1.6h1.6h15.3v101.5
				v1.6h1.6h4.7h1.6v-1.6V168.2V166.6L138.2,166.6z"/>
		</g>
		<g>
			<path fill="#FFFFFF" d="M188.2,278.2c-10.2,0-19.1-3.7-26.4-10.9c-7.3-7.2-11-16-11-26c0-7.8,2.5-15,7.4-21.6
				c4.5-6,10.3-10.3,17.2-12.7c-2.9-1.8-5.4-4.2-7.4-7.3c-2.4-3.7-3.6-7.6-3.6-11.6c0-6.2,2.3-11.6,6.7-15.9
				c4.4-4.3,9.9-6.5,16.3-6.5c6.3,0,11.8,2.2,16.3,6.5c4.5,4.3,6.8,9.7,6.8,15.9c0,4.1-1.1,7.9-3.3,11.3c-1.8,2.9-4.3,5.3-7.2,7.2
				c7.1,2.2,13,6.4,17.7,12.5c5.1,6.7,7.7,14.2,7.7,22.1c0,10.1-3.7,18.9-10.9,26.1C207.3,274.6,198.5,278.2,188.2,278.2z
				 M188.3,210.3c-8.4,0-15.7,3.1-21.9,9.3c-6.1,6.2-9.2,13.6-9.2,21.9c0,8.4,3.1,15.7,9.2,21.8c6.1,6.1,13.4,9.2,21.9,9.2
				c8.4,0,15.8-3.1,21.8-9.2s9.1-13.4,9.1-21.9c0-8.4-3.1-15.8-9.1-21.9C204,213.4,196.7,210.3,188.3,210.3z M187.5,171.3
				c-4.5,0-8.4,1.7-11.8,5s-5,7.3-5,11.7c0,4.4,1.7,8.4,5,11.7c3.3,3.3,7.3,5,11.8,5s8.5-1.7,11.8-5c3.4-3.3,5.1-7.3,5.1-11.7
				c0-4.4-1.7-8.4-5.1-11.7C195.9,173,191.9,171.3,187.5,171.3z"/>
			<path fill="#FFFFFF" d="M187.5,166.5c6.2,0,11.4,2.1,15.8,6.3c4.3,4.2,6.5,9.3,6.5,15.3c0,3.9-1.1,7.6-3.2,10.9
				c-2.1,3.3-5,6-8.6,7.9c7.7,1.9,14.1,6.2,19.1,12.8c5,6.6,7.5,13.8,7.5,21.7c0,9.9-3.6,18.4-10.7,25.5
				c-7.1,7.1-15.7,10.6-25.7,10.6s-18.6-3.6-25.8-10.7c-7.2-7.1-10.8-15.6-10.8-25.5c0-7.6,2.4-14.7,7.2-21.1
				c4.8-6.4,11-10.8,18.6-13c-3.5-1.7-6.5-4.3-8.7-7.9c-2.3-3.5-3.4-7.3-3.4-11.2c0-6,2.2-11.1,6.5-15.3
				C176.1,168.6,181.3,166.5,187.5,166.5 M187.5,205.5c4.7,0,8.9-1.7,12.4-5.2c3.5-3.5,5.3-7.6,5.3-12.3c0-4.7-1.8-8.8-5.3-12.3
				c-3.5-3.5-7.7-5.2-12.4-5.2c-4.7,0-8.8,1.7-12.3,5.2c-3.5,3.5-5.2,7.6-5.2,12.3c0,4.7,1.7,8.8,5.2,12.3
				C178.6,203.7,182.7,205.5,187.5,205.5 M188.2,273.3c8.7,0,16.2-3.1,22.4-9.4c6.2-6.3,9.3-13.7,9.3-22.4c0-8.7-3.1-16.2-9.3-22.5
				c-6.2-6.3-13.6-9.5-22.3-9.5c-8.7,0-16.1,3.2-22.4,9.5c-6.3,6.4-9.5,13.9-9.5,22.5c0,8.7,3.1,16.1,9.4,22.4
				C172.1,270.2,179.5,273.3,188.2,273.3 M187.5,164.9c-6.6,0-12.2,2.3-16.8,6.8c-4.6,4.5-6.9,10-6.9,16.5c0,4.2,1.2,8.3,3.7,12.1
				c1.8,2.7,3.9,4.9,6.3,6.6c-6.4,2.6-11.8,6.8-16.1,12.5c-5,6.7-7.6,14.1-7.6,22c0,10.2,3.8,19.2,11.2,26.6
				c7.4,7.4,16.5,11.1,26.9,11.1c10.4,0,19.5-3.7,26.9-11.1c7.4-7.4,11.2-16.3,11.2-26.7c0-8.2-2.6-15.8-7.9-22.6
				c-4.5-5.9-10-10-16.6-12.3c2.5-1.8,4.5-4,6.1-6.5c2.3-3.6,3.4-7.5,3.4-11.7c0-6.4-2.4-12-7-16.5
				C199.7,167.1,194,164.9,187.5,164.9L187.5,164.9z M187.5,203.9c-4.3,0-8-1.6-11.2-4.8c-3.2-3.2-4.8-6.8-4.8-11.1
				c0-4.3,1.6-7.9,4.8-11.1c3.2-3.2,6.9-4.8,11.2-4.8c4.3,0,8,1.6,11.3,4.8c3.2,3.2,4.8,6.8,4.8,11.1c0,4.3-1.6,7.9-4.8,11.1
				C195.5,202.3,191.8,203.9,187.5,203.9L187.5,203.9z M188.2,271.7c-8.2,0-15.4-3-21.3-8.9c-5.9-5.9-8.9-13.1-8.9-21.2
				c0-8.2,3-15.4,9-21.4c6-6,13.1-9.1,21.3-9.1c8.2,0,15.3,3,21.2,9c5.9,6,8.9,13.2,8.9,21.4c0,8.2-3,15.4-8.9,21.3
				C203.6,268.7,196.5,271.7,188.2,271.7L188.2,271.7z"/>
		</g>
		<g>
			<polygon fill="#FFFFFF" points="238.9,276.2 238.9,167.1 278.8,167.1 278.8,172.9 245.2,172.9 245.2,229.5 273.2,229.5 
				273.2,235.2 245.2,235.2 245.2,276.2 			"/>
			<path fill="#FFFFFF" d="M278,167.9v4.2h-33.6v58.2h28v4.2h-28v41h-4.7V167.9H278 M279.6,166.3H278h-38.3h-1.6v1.6v107.5v1.6h1.6
				h4.7h1.6v-1.6V236h26.4h1.6v-1.6v-4.2v-1.6h-1.6H246v-55h32h1.6v-1.6v-4.2V166.3L279.6,166.3z"/>
		</g>
	</g>
</g>
</svg>
